# xmcd CD database file
#
# Track frame offsets:
#	150
#	13181
#	31822
#	47980
#	59333
#	74165
#	85687
#	103235
#	119070
#	133630
#	149020
#	162664
#	175893
#	189293
#	219861
#	236170
#
# Disc length: 3296 seconds
#
# Revision: 6
# Processed by: cddbd v1.5.1PL0 Copyright (c) Steve Scherf et al.
# Submitted via: CDex 1.40Release
#
DISCID=f60cde10
DTITLE=Zabawa Na 102 - Cz. 2
DYEAR=2004
DGENRE=Cult
TTITLE0=Plynie Wisla Plynie
TTITLE1=Ore, Ore
TTITLE2=Czerwone Jabluszko
TTITLE3=Pogzkej, Pogzkej
TTITLE4=Gleboka Studzienka
TTITLE5=Cygan (na dancingu tancza goscie)
TTITLE6=Pojedziemy Na Low
TTITLE7=Oj Dana, Dana
TTITLE8=Fajeczka
TTITLE9=Rezerwa
TTITLE10=Raczki Dwie
TTITLE11=Gorzalka
TTITLE12=Zachodzi Slonecko
TTITLE13=Mix
TTITLE14=Granica
TTITLE15=Hej Bystra Woda
EXTD=YEAR: 2004 ID3G: 58
EXTT0=
EXTT1=
EXTT2=
EXTT3=
EXTT4=
EXTT5=
EXTT6=
EXTT7=
EXTT8=
EXTT9=
EXTT10=
EXTT11=
EXTT12=
EXTT13=
EXTT14=
EXTT15=
PLAYORDER=
